<svg xmlns="http://www.w3.org/2000/svg" width="48" height="48" viewBox="0 0 48 48" fill="none">
  <path d="M34 21.609C34 20.9176 34 20.572 34.104 20.264C34.4064 19.3689 35.2036 19.0215 36.0022 18.6578C36.9 18.2488 37.3488 18.0444 37.7936 18.0084C38.2986 17.9676 38.8044 18.0764 39.236 18.3186C39.8082 18.6397 40.2072 19.2499 40.6158 19.746C42.5026 22.0376 43.4458 23.1836 43.791 24.4472C44.0696 25.4668 44.0696 26.5332 43.791 27.5528C43.2876 29.3958 41.697 30.9408 40.5196 32.3708C39.9174 33.1022 39.6162 33.468 39.236 33.6814C38.8044 33.9236 38.2986 34.0324 37.7936 33.9916C37.3488 33.9556 36.9 33.7512 36.0022 33.3422C35.2036 32.9784 34.4064 32.6312 34.104 31.736C34 31.428 34 31.0824 34 30.391V21.609Z" stroke="#FF9327" stroke-width="3"/>
  <path d="M14 21.6092C14 20.7388 13.9756 19.9564 13.2718 19.3444C13.0159 19.1218 12.6765 18.9672 11.9978 18.6581C11.1 18.2492 10.6511 18.0447 10.2063 18.0087C8.87182 17.9008 8.15384 18.8116 7.38426 19.7464C5.4975 22.038 4.55412 23.1838 4.20892 24.4474C3.93036 25.4672 3.93036 26.5336 4.20892 27.5532C4.7124 29.3962 6.30304 30.941 7.48042 32.3712C8.22258 33.2726 8.93154 34.095 10.2063 33.992C10.6511 33.956 11.1 33.7514 11.9978 33.3426C12.6765 33.0334 13.0159 32.8788 13.2718 32.6562C13.9756 32.0442 14 31.262 14 30.3914V21.6092Z" stroke="#FF9327" stroke-width="3"/>
  <path d="M10 18C10 11.3726 16.268 6 24 6C31.732 6 38 11.3726 38 18" stroke="#FF9327" stroke-width="3" stroke-linecap="square" stroke-linejoin="round"/>
  <path d="M38 34V35.6C38 39.1346 34.4182 42 30 42H26" stroke="#FF9327" stroke-width="3" stroke-linecap="round" stroke-linejoin="round"/>
</svg>