<svg xmlns="http://www.w3.org/2000/svg" width="48" height="48" viewBox="0 0 48 48" fill="none">
<path d="M39.5004 22V20C39.5004 12.4575 39.5004 8.6863 37.1572 6.34314C34.814 4 31.0428 4 23.5004 4H21.5006C13.9582 4 10.1869 4 7.84379 6.34312C5.50065 8.68624 5.50061 12.4574 5.50055 19.9999L5.50049 28C5.50041 35.5424 5.50039 39.3136 7.84345 41.6568C10.1866 43.9998 13.9579 44 21.5004 44" stroke="#14B037" stroke-width="3" stroke-linecap="round" stroke-linejoin="round"/>
<path d="M14.5005 14H30.5004M14.5005 24H30.5004" stroke="#14B037" stroke-width="3" stroke-linecap="round"/>
<path d="M26.5004 41.6536V44H28.8472C29.666 44 30.0754 44 30.4434 43.8476C30.8116 43.695 31.101 43.4056 31.68 42.8268L41.3272 33.1788C41.8732 32.6328 42.1462 32.3598 42.2922 32.0654C42.57 31.505 42.57 30.8472 42.2922 30.2868C42.1462 29.9922 41.8732 29.7192 41.3272 29.1732C40.781 28.6272 40.508 28.3542 40.2134 28.2082C39.653 27.9306 38.995 27.9306 38.4346 28.2082C38.1402 28.3542 37.867 28.6272 37.321 29.1732L27.6738 38.8212C27.0948 39.4 26.8054 39.6894 26.653 40.0574C26.5004 40.4256 26.5004 40.8348 26.5004 41.6536Z" stroke="#14B037" stroke-width="3" stroke-linejoin="round"/>
</svg>