<svg xmlns="http://www.w3.org/2000/svg" width="48" height="48" viewBox="0 0 48 48" fill="none">
  <path d="M20 26.458C20.2832 26.9218 20.6194 27.3608 21.0084 27.7656C23.4234 30.279 27.1044 30.672 29.9152 28.9444C30.436 28.6242 30.9268 28.2314 31.3744 27.7656L37.8532 21.0228C40.7156 18.0437 40.7156 13.2135 37.8532 10.2344C34.9906 7.2552 30.3496 7.25522 27.487 10.2344L26.06 11.7196" stroke="#1D6AC4" stroke-width="3" stroke-linecap="round"/>
  <path d="M21.9406 36.28L20.513 37.7656C17.6505 40.7448 13.0094 40.7448 10.1469 37.7656C7.28436 34.7864 7.28436 29.9564 10.1469 26.9772L16.6257 20.2344C19.4883 17.2552 24.1294 17.2552 26.9918 20.2344C27.3808 20.639 27.7168 21.078 28 21.5416" stroke="#1D6AC4" stroke-width="3" stroke-linecap="round"/>
</svg>