<svg width="154" height="34" viewBox="0 0 154 34" fill="none" xmlns="http://www.w3.org/2000/svg">
<path d="M27.3145 16.0875C28.7854 20.3489 28.7611 24.5375 26.7557 28.5901C25.5179 31.0914 23.523 32.8566 20.802 33.5859C19.6017 33.9077 18.3029 33.8617 16.9761 33.9897C16.9761 33.3011 16.9684 32.7071 16.9874 32.114C16.9894 32.051 17.14 31.9705 17.2354 31.9369C17.5354 31.831 17.8436 31.7483 18.1458 31.6478C18.7396 31.4504 19.0812 31.0258 19.1474 30.4156C19.219 29.7561 19.2777 29.0913 19.279 28.4286C19.2871 23.9374 19.2804 19.4461 19.272 14.9548C19.2713 14.5982 19.23 14.2407 19.1919 13.8853C19.0868 12.9043 18.5398 12.3198 17.5855 12.0863C16.9714 11.9361 16.9739 11.9221 16.9746 11.2685C16.975 10.8721 16.9784 10.4757 16.9826 10.0793C16.9829 10.0569 17.003 10.0347 17.0314 9.97648C17.6116 9.97648 18.2091 9.98535 18.8062 9.97499C21.9161 9.92103 24.2137 11.4397 26.0346 13.7906C26.5595 14.4682 26.8862 15.2993 27.3145 16.0875Z" fill="black"/>
<path d="M3.71974 19.3197C3.71925 17.6565 3.72278 16.0317 3.71482 14.4069C3.71327 14.0898 3.68756 13.7696 3.63773 13.4564C3.49213 12.5414 3.05719 12.1543 2.12747 12.0939C1.77065 12.0706 1.41294 12.0571 1.05542 12.0494C0.711921 12.042 0.36814 12.0478 -0.000213623 12.0478C-0.000213623 11.3742 -0.000213623 10.7188 -0.000213623 10.0419C4.46838 10.0419 8.92795 10.0419 13.4169 10.0419C13.4169 10.7005 13.4169 11.3567 13.4169 12.0925C12.7459 12.0925 12.084 12.064 11.4254 12.0994C10.4877 12.1498 9.91562 12.7021 9.80691 13.6246C9.75615 14.0554 9.72075 14.4908 9.72029 14.9242C9.71515 19.7858 9.71609 24.6474 9.72328 29.509C9.7238 29.8651 9.76093 30.2254 9.82368 30.5762C9.95849 31.3298 10.5115 31.7974 11.2968 31.8397C11.6541 31.8589 12.0129 31.8522 12.3711 31.8544C12.7149 31.8565 13.0588 31.8548 13.4241 31.8548C13.4241 32.5354 13.4241 33.195 13.4241 33.8808C8.95108 33.8808 4.49409 33.8808 0.00603217 33.8808C0.00603217 33.2208 0.00603217 32.5652 0.00603217 31.8495C0.580537 31.8495 1.15258 31.8587 1.72411 31.8455C2.00273 31.8391 2.28582 31.8159 2.55736 31.7567C3.12237 31.6334 3.49845 31.2773 3.58576 30.7041C3.66795 30.1646 3.71219 29.6141 3.71411 29.0682C3.72551 25.8316 3.71974 22.5948 3.71974 19.3197Z" fill="black"/>
<path d="M8.54274 8.08125C7.89727 8.26844 7.27762 8.57255 6.65243 8.58437C4.78794 8.61961 3.20911 7.56383 2.55989 5.76578C1.83177 3.74923 2.67862 1.61838 4.38564 0.621108C5.48343 -0.0202476 6.66714 -0.190651 7.8503 0.23104C11.0142 1.35871 11.6802 4.97163 9.67702 7.20154C9.36861 7.54485 8.93937 7.7796 8.54274 8.08125Z" fill="#EF0206"/>
<path d="M37.2158 11.7702C38.7587 10.4533 40.4902 10.1829 42.3589 10.1765C42.6098 11.2311 42.6252 11.9322 41.488 12.5415C39.9365 13.3729 39.8794 15.3532 41.3947 16.3289C43.0245 17.3783 44.8449 18.1379 46.6026 18.9815C49.2343 20.2446 51.1247 22.0781 51.4382 25.1398C51.9297 29.9392 47.8735 33.966 42.9452 33.5097C42.9452 32.9572 42.9452 32.3969 42.9452 31.7964C43.16 31.7211 43.3518 31.6486 43.5468 31.5863C44.7137 31.2136 45.6503 30.4226 45.4812 29.221C45.3627 28.3784 44.6864 27.3738 43.9601 26.9081C42.5502 26.0042 40.917 25.4549 39.4 24.7105C37.6096 23.8319 36.0723 22.6572 35.199 20.7869C33.8502 17.8983 34.5289 13.8415 37.2158 11.7702Z" fill="black"/>
<path d="M129.542 17.995C129.543 22.019 129.545 25.8843 129.543 29.7497C129.542 30.5483 129.499 31.3132 130.575 31.5603C130.845 31.6222 131.237 32.2858 131.15 32.5097C131.014 32.8626 130.525 33.3073 130.177 33.3143C127.216 33.3747 124.252 33.3718 121.291 33.3056C120.946 33.2979 120.378 32.821 120.338 32.507C120.297 32.1865 120.788 31.8049 121.029 31.4387C121.363 30.9303 121.956 30.415 121.963 29.8964C122.032 24.6552 122.037 19.4122 121.956 14.1714C121.947 13.6002 121.272 13.0452 120.925 12.4712C120.7 12.099 120.289 11.6531 120.366 11.3374C120.439 11.0336 121.027 10.6591 121.396 10.6524C124.306 10.5994 127.219 10.6017 130.13 10.6626C130.489 10.6701 130.989 11.0545 131.14 11.3916C131.241 11.6142 130.899 12.3051 130.645 12.3723C129.427 12.6946 129.524 13.5883 129.538 14.5005C129.555 15.6123 129.542 16.7244 129.542 17.995Z" fill="black"/>
<path d="M75.0166 10.6763C77.9298 10.6191 80.7289 10.5709 83.5252 10.6379C84.109 10.652 84.6827 11.0913 85.261 11.3347C84.9152 11.7662 84.5212 12.1687 84.2377 12.6379C83.9831 13.0593 83.6924 13.5522 83.6871 14.0166C83.6304 18.9329 83.5543 23.8517 83.6786 28.7648C83.7006 29.6337 84.6762 30.4529 85.1064 31.3457C85.4262 32.0094 85.5762 32.7549 85.8018 33.464C85.6625 33.6427 85.5231 33.8213 85.3838 34C83.4248 33.5251 81.3963 33.2347 79.5243 32.5291C77.1046 31.6171 76.0396 29.6232 76.0535 27.034C76.0759 22.8572 76.0482 18.6801 76.0776 14.5034C76.0843 13.5528 76.0506 12.7981 74.9562 12.3512C74.1291 12.0135 74.2083 11.2975 75.0166 10.6763Z" fill="black"/>
<path d="M66.6825 19.5822C66.6852 23.0229 66.6743 26.3047 66.6995 29.5863C66.7065 30.499 66.7839 31.3911 68.0289 31.5673C68.2969 31.6051 68.6961 32.1678 68.6672 32.4511C68.637 32.7467 68.1974 33.0561 67.8711 33.2479C67.6152 33.3983 67.2595 33.4258 66.9478 33.4271C64.2478 33.4384 61.5462 33.4796 58.8489 33.3917C58.2628 33.3726 57.6923 32.8716 57.1147 32.5925C57.5287 32.1691 58.0316 31.7999 58.3327 31.3074C58.6565 30.7778 58.9752 30.1337 58.9795 29.5373C59.0186 24.0843 58.9885 18.6308 58.9792 13.1774C58.9778 12.3914 58.979 11.6054 58.979 10.6896C61.619 10.6896 64.0769 10.6896 66.6825 10.6896C66.6825 13.6223 66.6825 16.5228 66.6825 19.5822Z" fill="black"/>
<path d="M107.195 26.2575C107.195 28.6812 107.195 30.946 107.195 33.3768C104.411 33.3768 101.739 33.4133 99.07 33.3368C98.677 33.3255 98.1727 32.843 97.9724 32.4498C97.8834 32.2752 98.4236 31.7815 98.676 31.431C98.9763 31.0142 99.5284 30.5996 99.5347 30.1774C99.6167 24.6811 99.6425 19.1834 99.6019 13.6867C99.5989 13.277 98.9645 12.8829 98.6511 12.4611C98.3967 12.1185 97.9402 11.6796 98.0148 11.4023C98.1042 11.0706 98.658 10.6486 99.0195 10.64C101.699 10.5761 104.382 10.6054 107.195 10.6054C107.195 15.8664 107.195 20.9825 107.195 26.2575Z" fill="black"/>
<path d="M133.301 20.0925C133.852 15.0364 136.754 11.2933 140.777 10.3659C141.374 10.2283 141.994 10.1921 142.604 10.109C142.733 10.2228 142.863 10.3367 142.993 10.4506C142.665 11.1023 142.31 11.7417 142.019 12.4094C141.757 13.0124 141.377 13.6445 141.372 14.2667C141.325 19.2881 141.311 24.3109 141.407 29.331C141.422 30.101 142.082 30.8467 142.383 31.6273C142.608 32.2134 142.735 32.8374 142.955 33.6184C139.431 33.7222 137.036 32.2986 135.281 29.6546C133.373 26.7792 133.064 23.5607 133.301 20.0925Z" fill="black"/>
<path d="M148.229 11.0848C151.293 12.8572 152.879 15.5431 153.418 18.8101C154.177 23.4206 153.78 27.8113 150.206 31.3386C148.587 32.9367 146.61 33.6657 143.866 33.5525C144.226 32.7482 144.529 32.0984 144.808 31.4382C145.104 30.7386 145.611 30.0328 145.622 29.3234C145.7 24.241 145.704 19.1567 145.643 14.0741C145.636 13.504 145.067 12.9418 144.762 12.3738C144.44 11.7722 144.122 11.1681 143.802 10.5651C143.961 10.3712 144.12 10.1774 144.279 9.98351C145.561 10.3322 146.844 10.681 148.229 11.0848Z" fill="black"/>
<path d="M113.228 11.752C119.757 15.3606 119.583 26.9307 114.638 31.1514C112.898 32.6372 110.972 33.3595 108.653 33.3538C108.349 32.386 108.371 31.7337 109.412 31.134C109.951 30.8231 110.377 29.8467 110.389 29.163C110.469 24.4079 110.482 19.6495 110.369 14.8957C110.352 14.1672 109.557 13.4658 109.152 12.7349C108.879 12.2423 108.66 11.7198 108.417 11.2107C108.887 11.0258 109.4 10.6177 109.818 10.699C110.943 10.9177 112.028 11.3454 113.228 11.752Z" fill="black"/>
<path d="M88.8199 10.8002C90.7117 10.6857 92.5063 10.608 94.3002 10.6209C94.6494 10.6234 95.2522 10.9433 95.2848 11.1794C95.3363 11.5519 95.1153 12.1867 94.8158 12.346C93.1225 13.2465 92.9774 14.7257 92.9692 16.4028C92.95 20.3132 92.9521 24.2323 92.6861 28.1302C92.4887 31.0225 90.0935 33.2099 87.0704 33.6562C87.0704 32.9863 87.0704 32.3308 87.0704 31.5128C90.4783 30.8295 91.0421 28.188 91.0257 25.1955C91.0095 22.2306 90.9651 19.2658 90.9626 16.301C90.9613 14.6862 90.6634 13.2861 89.1001 12.3707C88.788 12.1879 88.839 11.3854 88.8199 10.8002Z" fill="black"/>
<path d="M37.069 27.4382C38.1081 29.3082 39.1185 31.0049 41.2031 31.7652C41.5801 31.9027 41.6702 32.8273 41.8927 33.3885C41.7749 33.5193 41.6571 33.6501 41.5393 33.781C40.4583 33.4881 39.3911 33.1059 38.2912 32.9367C37.6636 32.8402 36.9014 32.9324 36.3429 33.2187C35.2293 33.7896 34.6133 33.5873 34.5591 32.2984C34.477 30.3432 34.464 28.3801 34.5528 26.4263C34.5759 25.9165 35.0845 25.4288 35.3701 24.9309C35.7886 25.3313 36.2671 25.6876 36.6051 26.1472C36.8415 26.4688 36.8856 26.9316 37.069 27.4382Z" fill="black"/>
<path d="M47.1867 14.2833C46.371 13.6085 45.674 12.947 44.8673 12.4714C43.6948 11.7801 43.6611 11.8373 43.8672 10.1507C44.364 10.2162 44.8879 10.2042 45.3542 10.3621C46.6807 10.8112 47.9573 11.4721 49.3738 10.5226C49.4981 10.4394 50.4683 11.1116 50.4914 11.4688C50.614 13.3643 50.6083 15.2734 50.5265 17.1726C50.5096 17.5657 49.9816 17.9367 49.6892 18.3179C49.3026 18.0201 48.7672 17.8014 48.5587 17.409C48.0446 16.4417 47.6807 15.3946 47.1867 14.2833Z" fill="black"/>
<path d="M72.2917 18.1229C71.2982 18.9615 70.6003 18.6306 70.3591 17.609C69.9358 15.8167 69.6846 14.0205 68.1696 12.6686C67.8144 12.3517 68.0288 11.3965 67.9749 10.6473C69.4977 10.6473 70.8505 10.6473 72.3447 10.6473C72.3447 13.1059 72.3447 15.555 72.2917 18.1229Z" fill="black"/>
<path d="M56.0076 15.136C55.7471 16.1205 55.6214 17.0254 55.2708 17.8325C55.1132 18.1953 54.5114 18.5414 54.1008 18.554C53.8401 18.562 53.3359 17.9489 53.3253 17.6026C53.2552 15.3051 53.289 13.0046 53.289 10.6591C54.8298 10.6591 56.2293 10.6591 58.1702 10.6591C57.6482 11.7821 57.2583 12.6445 56.8471 13.4966C56.5987 14.0115 56.3173 14.5104 56.0076 15.136Z" fill="black"/>
</svg>
