<svg xmlns="http://www.w3.org/2000/svg" width="20" height="20" viewBox="0 0 20 20" fill="none">
  <g clip-path="url(#clip0_886_14308)">
    <path d="M10.0004 20.0001C15.523 20.0001 20 15.5232 20 10.0006C20 4.47794 15.523 0.000976562 10.0004 0.000976562C4.47781 0.000976562 0.000846863 4.47794 0.000846863 10.0006C0.000846863 15.5232 4.47781 20.0001 10.0004 20.0001Z" fill="white"/>
    <path d="M19.4284 6.66602H13.2671C13.5347 8.80218 13.5363 11.1559 13.2723 13.2948H19.4416C19.8017 12.2629 19.9997 11.1548 19.9997 10.0003C19.9999 8.8306 19.7973 7.70891 19.4284 6.66602Z" fill="#EFECEC"/>
    <path d="M13.2671 6.66578H19.4283C19.4274 6.66262 19.4264 6.65996 19.4251 6.65709C18.1454 3.04845 14.8533 0.393448 10.8979 0.0410156C12.4287 0.880063 12.8758 3.5384 13.2671 6.66578Z" fill="#E97E24"/>
    <path d="M10.8982 19.9584C14.8607 19.6053 18.1574 16.9412 19.4322 13.3228C19.4356 13.3132 19.4384 13.3037 19.4419 13.2944H13.2725C12.8842 16.4388 12.4351 19.1158 10.8982 19.9584Z" fill="#258F44"/>
    <path d="M0 9.9998C0 11.1545 0.19832 12.2624 0.558141 13.2943H13.787C14.0513 11.1553 14.0494 8.8017 13.7821 6.66553H0.571441C0.202584 7.70847 0 8.83015 0 9.9998Z" fill="#EFEFEF"/>
    <path d="M0.574563 6.65711C0.573634 6.65994 0.572663 6.66264 0.571396 6.66581H13.7821C13.3906 3.53838 12.4286 0.880088 10.898 0.0410404C10.602 0.0148201 10.3026 4.81247e-10 9.99979 4.81247e-10C5.64963 -4.22221e-05 1.9503 2.77825 0.574563 6.65711Z" fill="#EA8634"/>
    <path d="M13.787 13.2944H0.558144C0.561479 13.3038 0.564604 13.3132 0.56777 13.3228C1.93802 17.2116 5.64267 19.9998 9.99979 19.9998C10.3027 19.9998 10.602 19.9849 10.898 19.9584C12.4351 19.1159 13.3988 16.4388 13.787 13.2944Z" fill="#359846"/>
  </g>
  <defs>
    <clipPath id="clip0_886_14308">
      <rect width="20" height="20" fill="white"/>
    </clipPath>
  </defs>
</svg>