<svg xmlns="http://www.w3.org/2000/svg" width="41" height="40" viewBox="0 0 41 40" fill="none">
  <path d="M31.5492 30.5625H27.1042V23.6C27.1042 21.94 27.0742 19.8025 24.7917 19.8025C22.4767 19.8025 22.1217 21.6125 22.1217 23.4775V30.5625H17.6767V16.245H21.9442V18.2025H22.0042C22.8742 16.7175 24.4942 15.8275 26.2142 15.89C30.7192 15.89 31.5517 18.8525 31.5517 22.71L31.5492 30.56V30.5625ZM12.6617 14.2875C11.9789 14.2843 11.3249 14.0117 10.8419 13.5291C10.3588 13.0465 10.0856 12.3928 10.0817 11.71C10.0817 10.295 11.2467 9.13004 12.6617 9.13004C14.0767 9.13004 15.2392 10.295 15.2417 11.71C15.2417 13.125 14.0767 14.2875 12.6617 14.2875ZM14.8842 30.5625H10.4342V16.245H14.8842V30.5625ZM33.7617 5.00004H8.19919C7.61957 4.99667 7.06204 5.22219 6.64775 5.62758C6.23347 6.03297 5.99591 6.58548 5.98669 7.16504V32.835C5.99591 33.4146 6.23347 33.9671 6.64775 34.3725C7.06204 34.7779 7.61957 35.0034 8.19919 35H33.7642C34.3452 35.0047 34.9045 34.78 35.3207 34.3746C35.7368 33.9692 35.9762 33.4159 35.9867 32.835V7.16254C35.9762 6.5821 35.7367 6.02936 35.3204 5.62476C34.904 5.22016 34.3447 4.9965 33.7642 5.00254L33.7617 5.00004Z" fill="#0A66C2"/>
</svg>