<svg xmlns="http://www.w3.org/2000/svg" width="41" height="40" viewBox="0 0 41 40" fill="none">
  <g clip-path="url(#clip0_886_6087)">
    <path fill-rule="evenodd" clip-rule="evenodd" d="M20.9879 0C9.943 0 0.986694 8.95395 0.986694 20.0012C0.986694 28.1884 5.91173 35.2255 12.9606 38.3183C12.9041 36.9236 12.9512 35.2443 13.3063 33.7249C13.6921 32.1021 15.8794 22.8282 15.8794 22.8282C15.8794 22.8282 15.242 21.5511 15.242 19.6625C15.242 16.699 16.9613 14.4858 19.0992 14.4858C20.9173 14.4858 21.797 15.8523 21.797 17.4893C21.797 19.3167 20.6304 22.0521 20.0306 24.5852C19.5297 26.709 21.0937 28.4377 23.187 28.4377C26.976 28.4377 29.5279 23.5715 29.5279 17.8044C29.5279 13.4227 26.5762 10.1417 21.2066 10.1417C15.1409 10.1417 11.3612 14.6646 11.3612 19.7166C11.3612 21.4618 11.874 22.6895 12.6784 23.6397C13.05 24.0795 13.0994 24.2536 12.9653 24.7569C12.8712 25.1214 12.6501 26.0105 12.5584 26.3609C12.4243 26.8666 12.0151 27.05 11.5588 26.8619C8.76233 25.7212 7.46169 22.6613 7.46169 19.2203C7.46169 13.5403 12.2526 6.72429 21.7546 6.72429C29.3915 6.72429 34.4176 12.2538 34.4176 18.1831C34.4176 26.0293 30.0571 31.8904 23.6244 31.8904C21.4677 31.8904 19.4356 30.7238 18.7394 29.3997C18.7394 29.3997 17.5775 34.0072 17.3329 34.8962C16.9095 36.4368 16.0793 37.9796 15.3196 39.1792C17.1189 39.7107 19.0193 40 20.9879 40C32.0327 40 40.9867 31.046 40.9867 20.0012C40.9867 8.95395 32.0327 0 20.9879 0Z" fill="#CC2127"/>
  </g>
  <defs>
    <clipPath id="clip0_886_6087">
      <rect width="40" height="40" fill="white" transform="translate(0.986694)"/>
    </clipPath>
  </defs>
</svg>