<svg width="18" height="18" viewBox="0 0 18 18" fill="none" xmlns="http://www.w3.org/2000/svg">
<g clip-path="url(#clip0_886_6211)">
<path d="M2.25 15.75L3.4875 12.9C2.54075 11.5561 2.117 9.91279 2.29578 8.27859C2.47457 6.6444 3.24359 5.13162 4.45853 4.02416C5.67347 2.91669 7.25081 2.29068 8.89454 2.26359C10.5383 2.2365 12.1354 2.81021 13.3861 3.87704C14.6369 4.94388 15.4554 6.4305 15.6879 8.05792C15.9204 9.68534 15.551 11.3417 14.6491 12.7161C13.7471 14.0905 12.3746 15.0885 10.789 15.5228C9.20351 15.9572 7.51397 15.7979 6.0375 15.075L2.25 15.75Z" stroke="white" stroke-width="1.125" stroke-linecap="round" stroke-linejoin="round"/>
<path d="M6.75 7.50002C6.75 7.59947 6.78951 7.69485 6.85983 7.76518C6.93016 7.83551 7.02554 7.87502 7.125 7.87502C7.22446 7.87502 7.31984 7.83551 7.39017 7.76518C7.46049 7.69485 7.5 7.59947 7.5 7.50002V6.75002C7.5 6.65056 7.46049 6.55518 7.39017 6.48485C7.31984 6.41452 7.22446 6.37502 7.125 6.37502C7.02554 6.37502 6.93016 6.41452 6.85983 6.48485C6.78951 6.55518 6.75 6.65056 6.75 6.75002V7.50002ZM6.75 7.50002C6.75 8.49458 7.14509 9.4484 7.84835 10.1517C8.55161 10.8549 9.50544 11.25 10.5 11.25M10.5 11.25H11.25C11.3495 11.25 11.4448 11.2105 11.5152 11.1402C11.5855 11.0699 11.625 10.9745 11.625 10.875C11.625 10.7756 11.5855 10.6802 11.5152 10.6098C11.4448 10.5395 11.3495 10.5 11.25 10.5H10.5C10.4005 10.5 10.3052 10.5395 10.2348 10.6098C10.1645 10.6802 10.125 10.7756 10.125 10.875C10.125 10.9745 10.1645 11.0699 10.2348 11.1402C10.3052 11.2105 10.4005 11.25 10.5 11.25Z" stroke="white" stroke-width="1.125" stroke-linecap="round" stroke-linejoin="round"/>
</g>
<defs>
<clipPath id="clip0_886_6211">
<rect width="18" height="18" fill="white"/>
</clipPath>
</defs>
</svg>
